<svg width="159" height="40" viewBox="0 0 159 40" fill="none" xmlns="http://www.w3.org/2000/svg">
<path d="M25.9504 1.73281C25.9504 0.775807 26.7214 0 27.6724 0H63.9586C64.9096 0 65.6805 0.775806 65.6805 1.73281V38.2672C65.6805 39.2242 64.9096 40 63.9586 40H27.6724C26.7214 40 25.9504 39.2242 25.9504 38.2672V1.73281Z" fill="#56CCF2"/>
<path d="M0 28.7361C0 27.7791 0.770939 26.9945 1.72194 26.9945H19.9035C20.8545 26.9945 21.6254 27.7791 21.6254 28.7361C21.6254 29.6931 20.8545 30.4777 19.9035 30.4777H1.72194C0.770937 30.4777 0 29.6931 0 28.7361Z" fill="#2D9CDB"/>
<path d="M4.32507 20.0282C4.32507 19.0712 5.09601 18.2867 6.04701 18.2867H19.9035C20.8545 18.2867 21.6254 19.0712 21.6254 20.0282C21.6254 20.9852 20.8545 21.7698 19.9034 21.7698H6.04701C5.09601 21.7698 4.32507 20.9852 4.32507 20.0282Z" fill="#2D9CDB"/>
<path d="M8.65016 10.4496C8.65016 9.49258 9.42109 8.70801 10.3721 8.70801H19.9035C20.8545 8.70801 21.6254 9.49258 21.6254 10.4496C21.6254 11.4066 20.8545 12.1912 19.9035 12.1912H10.3721C9.4211 12.1912 8.65016 11.4066 8.65016 10.4496Z" fill="#2D9CDB"/>
<path d="M84.3707 17.0403H81.2092V25.4617H78.1872V17.0403H75.0103V14.3891H84.3707V17.0403Z" fill="#2D9CDB"/>
<path d="M90.6209 19.785C90.0527 19.785 89.5361 19.8474 89.0712 19.9722C88.6063 20.0969 88.2601 20.3049 88.0328 20.596V25.4617H85.0883V17.2586H87.7849V18.8181C88.0742 18.2671 88.4306 17.846 88.8542 17.5549C89.2881 17.2534 89.7531 17.1026 90.249 17.1026C90.4453 17.1026 90.5693 17.1078 90.6209 17.1182V19.785Z" fill="#2D9CDB"/>
<path d="M93.9996 25.6177C93.1731 25.6177 92.5429 25.3681 92.1089 24.8691C91.675 24.3596 91.458 23.6215 91.458 22.6546V17.2586H94.4026V21.984C94.4026 22.3479 94.48 22.6286 94.635 22.8261C94.8003 23.0236 95.0225 23.1224 95.3014 23.1224C95.5287 23.1224 95.7612 23.0704 95.9988 22.9665C96.2364 22.8625 96.474 22.6338 96.7117 22.2803V17.2586H99.6562V22.1867C99.6562 22.4674 99.6975 22.665 99.7802 22.7793C99.8628 22.8833 100.007 22.9457 100.214 22.9665V25.4617C99.7079 25.5657 99.2946 25.6177 98.9743 25.6177C97.9721 25.6177 97.3936 25.2382 97.2386 24.4792L97.1766 24.1829C96.7943 24.6923 96.3397 25.0614 95.8128 25.2902C95.2859 25.5085 94.6815 25.6177 93.9996 25.6177Z" fill="#2D9CDB"/>
<path d="M100.969 21.3602C100.969 20.7987 101.067 20.2633 101.263 19.7538C101.46 19.234 101.744 18.7817 102.116 18.397C102.498 18.002 102.968 17.6901 103.526 17.4613C104.084 17.2222 104.724 17.1026 105.448 17.1026C106.439 17.1026 107.266 17.3106 107.927 17.7264C108.599 18.1423 109.1 18.6778 109.43 19.3328L106.563 20.2061C106.284 19.8006 105.907 19.5979 105.432 19.5979C105.029 19.5979 104.688 19.7538 104.409 20.0657C104.13 20.3673 103.991 20.7987 103.991 21.3602C103.991 21.9216 104.13 22.3582 104.409 22.6702C104.688 22.9717 105.029 23.1224 105.432 23.1224C105.907 23.1224 106.284 22.9197 106.563 22.5142L109.43 23.3875C109.1 24.0425 108.599 24.578 107.927 24.9939C107.266 25.4097 106.439 25.6177 105.448 25.6177C104.724 25.6177 104.084 25.5033 103.526 25.2746C102.968 25.0354 102.498 24.7235 102.116 24.3389C101.744 23.9438 101.46 23.4915 101.263 22.9821C101.067 22.4622 100.969 21.9216 100.969 21.3602Z" fill="#2D9CDB"/>
<path d="M115.74 25.4617L113.896 22.4674L113.307 23.1224V25.4617H110.363V14.0771H113.307V20.2997L115.477 17.2586H118.576L115.771 20.8455L118.855 25.4617H115.74Z" fill="#2D9CDB"/>
<path d="M129.471 25.4617V16.8999L125.814 23.4655H125.024L121.351 16.8999V25.4617H119.956V14.3891H121.428L125.411 21.5785L129.409 14.3891H130.866V25.4617H129.471Z" fill="#2D9CDB"/>
<path d="M136.681 25.6177C136.072 25.6177 135.514 25.5033 135.008 25.2746C134.512 25.0458 134.083 24.7391 133.721 24.3544C133.37 23.9698 133.096 23.5227 132.9 23.0133C132.704 22.5038 132.606 21.9684 132.606 21.4069C132.606 20.8351 132.704 20.2945 132.9 19.785C133.107 19.2756 133.386 18.8285 133.737 18.4438C134.098 18.0591 134.527 17.7524 135.023 17.5237C135.529 17.295 136.082 17.1806 136.681 17.1806C137.281 17.1806 137.833 17.295 138.34 17.5237C138.846 17.7524 139.275 18.0591 139.626 18.4438C139.987 18.8285 140.266 19.2756 140.463 19.785C140.669 20.2945 140.773 20.8351 140.773 21.4069C140.773 21.9684 140.675 22.5038 140.478 23.0133C140.282 23.5227 140.003 23.9698 139.641 24.3544C139.28 24.7391 138.846 25.0458 138.34 25.2746C137.844 25.5033 137.291 25.6177 136.681 25.6177ZM134 21.4225C134 21.8488 134.067 22.2439 134.202 22.6078C134.346 22.9717 134.538 23.2888 134.775 23.5591C135.023 23.8294 135.307 24.0425 135.628 24.1985C135.958 24.3544 136.309 24.4324 136.681 24.4324C137.053 24.4324 137.399 24.3544 137.72 24.1985C138.05 24.0425 138.34 23.8294 138.588 23.5591C138.835 23.2784 139.027 22.9561 139.161 22.5922C139.306 22.2179 139.378 21.8176 139.378 21.3913C139.378 20.9755 139.306 20.5856 139.161 20.2217C139.027 19.8474 138.835 19.5251 138.588 19.2548C138.34 18.9741 138.05 18.7557 137.72 18.5998C137.399 18.4438 137.053 18.3659 136.681 18.3659C136.309 18.3659 135.958 18.449 135.628 18.6154C135.307 18.7713 135.023 18.9897 134.775 19.2704C134.538 19.5407 134.346 19.863 134.202 20.2373C134.067 20.6012 134 20.9963 134 21.4225Z" fill="#2D9CDB"/>
<path d="M145.959 25.6177C145.349 25.6177 144.791 25.5033 144.285 25.2746C143.789 25.0458 143.36 24.7391 142.999 24.3544C142.647 23.9698 142.374 23.5227 142.177 23.0133C141.981 22.5038 141.883 21.9684 141.883 21.4069C141.883 20.8351 141.981 20.2945 142.177 19.785C142.384 19.2756 142.663 18.8285 143.014 18.4438C143.376 18.0591 143.804 17.7524 144.3 17.5237C144.807 17.295 145.359 17.1806 145.959 17.1806C146.558 17.1806 147.111 17.295 147.617 17.5237C148.123 17.7524 148.552 18.0591 148.903 18.4438C149.265 18.8285 149.544 19.2756 149.74 19.785C149.947 20.2945 150.05 20.8351 150.05 21.4069C150.05 21.9684 149.952 22.5038 149.756 23.0133C149.559 23.5227 149.28 23.9698 148.919 24.3544C148.557 24.7391 148.123 25.0458 147.617 25.2746C147.121 25.5033 146.568 25.6177 145.959 25.6177ZM143.278 21.4225C143.278 21.8488 143.345 22.2439 143.479 22.6078C143.624 22.9717 143.815 23.2888 144.052 23.5591C144.3 23.8294 144.585 24.0425 144.905 24.1985C145.235 24.3544 145.587 24.4324 145.959 24.4324C146.331 24.4324 146.677 24.3544 146.997 24.1985C147.328 24.0425 147.617 23.8294 147.865 23.5591C148.113 23.2784 148.304 22.9561 148.438 22.5922C148.583 22.2179 148.655 21.8176 148.655 21.3913C148.655 20.9755 148.583 20.5856 148.438 20.2217C148.304 19.8474 148.113 19.5251 147.865 19.2548C147.617 18.9741 147.328 18.7557 146.997 18.5998C146.677 18.4438 146.331 18.3659 145.959 18.3659C145.587 18.3659 145.235 18.449 144.905 18.6154C144.585 18.7713 144.3 18.9897 144.052 19.2704C143.815 19.5407 143.624 19.863 143.479 20.2373C143.345 20.6012 143.278 20.9963 143.278 21.4225Z" fill="#2D9CDB"/>
<path d="M153.77 25.4617L150.578 17.321H151.988L154.545 24.2609L157.118 17.321H158.419L155.227 25.4617H153.77Z" fill="#2D9CDB"/>
<path d="M56.2041 16.3108L48.7602 8.33129C48.4664 8.01627 48.0509 7.83691 47.6155 7.83691H38.8147C39.6712 7.83691 37.8265 7.83691 38.8147 7.83691C37.9581 7.83691 35.7128 7.83691 35.7128 7.83691C35.7128 9.24336 35.7128 8.6764 35.7128 7.83691V27.1018C35.7128 23.6044 35.7128 25.0132 35.7128 27.1018C35.7128 30.5992 35.7128 27.1018 35.7128 30.1418C34.8563 30.1418 36.5694 30.1418 35.7128 30.1418C37.2638 30.1418 38.1778 30.1418 35.7128 30.1418H40.9405C41.6102 32.3473 43.6968 33.9605 46.1616 33.9605C48.6265 33.9605 50.7131 32.3472 51.3828 30.1418H55.0595C55.9161 30.1418 56.6104 29.4613 56.6104 28.6218V17.3365C56.6104 16.9569 56.4655 16.591 56.2041 16.3108ZM46.1616 30.9205C44.8682 30.9205 43.8161 29.8893 43.8161 28.6218C43.8161 27.3543 44.8682 26.323 46.1616 26.323C47.455 26.323 48.5071 27.3543 48.5071 28.6218C48.5071 29.8893 47.455 30.9205 46.1616 30.9205ZM51.3828 27.1018C50.7131 24.8964 48.6265 23.283 46.1616 23.283C43.6968 23.283 41.6102 24.8964 40.9405 27.1018H38.8147V10.8769H46.9321L51.5402 15.8165H42.7553C41.8987 15.8165 41.2044 16.497 41.2044 17.3365C41.2044 18.176 41.8987 18.8565 42.7553 18.8565H53.5086V27.1018H51.3828Z" fill="white"/>
</svg>
